<svg width="438" height="317" viewBox="0 0 438 317" fill="none" xmlns="http://www.w3.org/2000/svg">
<g filter="url(#filter0_b_2_3)">
<mask id="path-1-outside-1_2_3" maskUnits="userSpaceOnUse" x="-1" y="-1" width="440" height="319" fill="black">
<rect fill="white" x="-1" y="-1" width="440" height="319"/>
<path d="M46.8997 132.969C33.1764 132.969 22.2574 129.27 14.1427 121.871C6.14737 114.353 2.1497 104.269 2.1497 91.62H28.9997C28.9997 97.1093 30.6107 101.525 33.8327 104.866C37.0547 108.088 41.4104 109.699 46.8997 109.699C52.389 109.699 56.7447 108.148 59.9667 105.045C63.1887 101.823 64.7997 97.4673 64.7997 91.978V25.39H35.2647V0.329997H91.6497V91.978C91.6497 104.627 87.652 114.651 79.6567 122.05C71.6614 129.329 60.7424 132.969 46.8997 132.969ZM164.97 132.79C156.258 132.79 148.681 131.179 142.237 127.957C135.793 124.616 130.781 120.021 127.201 114.174C123.74 108.207 122.01 101.286 122.01 93.41V70.14C122.01 62.264 123.74 55.4023 127.201 49.555C130.781 43.5883 135.793 38.994 142.237 35.772C148.681 32.4307 156.258 30.76 164.97 30.76C173.8 30.76 181.378 32.4307 187.703 35.772C194.147 38.994 199.099 43.5883 202.56 49.555C206.14 55.4023 207.93 62.264 207.93 70.14V93.41C207.93 101.286 206.14 108.207 202.56 114.174C199.099 120.021 194.147 124.616 187.703 127.957C181.378 131.179 173.8 132.79 164.97 132.79ZM164.97 109.52C170.22 109.52 174.218 108.148 176.963 105.403C179.707 102.539 181.08 98.5413 181.08 93.41V70.14C181.08 64.8893 179.707 60.8917 176.963 58.147C174.218 55.4023 170.22 54.03 164.97 54.03C159.838 54.03 155.841 55.4023 152.977 58.147C150.232 60.8917 148.86 64.8893 148.86 70.14V93.41C148.86 98.5413 150.232 102.539 152.977 105.403C155.841 108.148 159.838 109.52 164.97 109.52ZM277.849 132.79C269.138 132.79 261.5 131.179 254.937 127.957C248.493 124.616 243.481 120.021 239.901 114.174C236.44 108.207 234.71 101.286 234.71 93.41V70.14C234.71 62.264 236.44 55.4023 239.901 49.555C243.481 43.5883 248.493 38.994 254.937 35.772C261.5 32.4307 269.138 30.76 277.849 30.76C286.56 30.76 294.078 32.4307 300.403 35.772C306.847 38.994 311.799 43.5883 315.26 49.555C318.84 55.4023 320.63 62.264 320.63 70.14V88.04H260.307V93.41C260.307 99.6153 261.799 104.329 264.782 107.551C267.765 110.654 272.24 112.205 278.207 112.205C282.384 112.205 285.725 111.489 288.231 110.057C290.856 108.625 292.587 106.656 293.422 104.15H319.735C317.587 112.742 312.694 119.663 305.057 124.914C297.539 130.165 288.47 132.79 277.849 132.79ZM295.033 74.257V69.782C295.033 63.696 293.601 59.042 290.737 55.82C287.992 52.598 283.696 50.987 277.849 50.987C272.002 50.987 267.586 52.6577 264.603 55.999C261.739 59.3403 260.307 64.054 260.307 70.14V72.825L296.823 72.467L295.033 74.257ZM406.48 131C399.559 131 393.473 129.568 388.222 126.704C382.971 123.721 378.854 119.604 375.871 114.353C373.007 109.102 371.575 103.016 371.575 96.095V24.495H341.145V0.329997H398.425V96.095C398.425 99.317 399.38 101.942 401.289 103.971C403.318 105.88 405.943 106.835 409.165 106.835H437.805V131H406.48ZM12.5317 315L0.359702 184.33H22.3767L28.9997 271.682C29.119 273.353 29.2384 275.739 29.3577 278.842C29.477 281.825 29.5964 284.988 29.7157 288.329C29.9544 291.551 30.0737 294.475 30.0737 297.1C30.3124 294.475 30.551 291.551 30.7897 288.329C31.1477 284.988 31.5057 281.825 31.8637 278.842C32.2217 275.739 32.4604 273.353 32.5797 271.682L42.2457 184.33H62.6517L71.9597 271.682C72.1984 273.353 72.437 275.739 72.6757 278.842C73.0337 281.825 73.3917 284.988 73.7497 288.329C74.227 291.551 74.585 294.475 74.8237 297.1C74.943 294.475 75.0624 291.551 75.1817 288.329C75.301 284.988 75.4204 281.825 75.5397 278.842C75.659 275.739 75.7784 273.353 75.8977 271.682L81.9837 184.33H104.18L91.1127 315H63.1887L54.4177 228.185C54.179 226.156 53.9404 223.531 53.7017 220.309C53.463 216.968 53.2244 213.507 52.9857 209.927C52.747 206.347 52.5084 203.185 52.2697 200.44C52.1504 203.185 51.9714 206.347 51.7327 209.927C51.494 213.507 51.2554 216.968 51.0167 220.309C50.778 223.531 50.5394 226.156 50.3007 228.185L40.6347 315H12.5317ZM164.97 316.79C156.258 316.79 148.681 315.179 142.237 311.957C135.793 308.616 130.781 304.021 127.201 298.174C123.74 292.207 122.01 285.286 122.01 277.41V254.14C122.01 246.264 123.74 239.402 127.201 233.555C130.781 227.588 135.793 222.994 142.237 219.772C148.681 216.431 156.258 214.76 164.97 214.76C173.8 214.76 181.378 216.431 187.703 219.772C194.147 222.994 199.099 227.588 202.56 233.555C206.14 239.402 207.93 246.264 207.93 254.14V277.41C207.93 285.286 206.14 292.207 202.56 298.174C199.099 304.021 194.147 308.616 187.703 311.957C181.378 315.179 173.8 316.79 164.97 316.79ZM164.97 293.52C170.22 293.52 174.218 292.148 176.963 289.403C179.707 286.539 181.08 282.541 181.08 277.41V254.14C181.08 248.889 179.707 244.892 176.963 242.147C174.218 239.402 170.22 238.03 164.97 238.03C159.838 238.03 155.841 239.402 152.977 242.147C150.232 244.892 148.86 248.889 148.86 254.14V277.41C148.86 282.541 150.232 286.539 152.977 289.403C155.841 292.148 159.838 293.52 164.97 293.52ZM293.78 315C286.859 315 280.773 313.568 275.522 310.704C270.271 307.721 266.154 303.604 263.171 298.353C260.307 293.102 258.875 287.016 258.875 280.095V208.495H228.445V184.33H285.725V280.095C285.725 283.317 286.68 285.942 288.589 287.971C290.618 289.88 293.243 290.835 296.465 290.835H325.105V315H293.78ZM371.575 315V252.35H345.441V228.185H371.575V214.76C371.575 205.571 374.678 198.232 380.883 192.743C387.208 187.134 395.442 184.33 405.585 184.33H434.404V207.6H406.48C404.093 207.6 402.124 208.376 400.573 209.927C399.141 211.359 398.425 213.268 398.425 215.655V228.185H434.404V252.35H398.425V315H371.575Z"/>
</mask>
<path d="M46.8997 132.969C33.1764 132.969 22.2574 129.27 14.1427 121.871C6.14737 114.353 2.1497 104.269 2.1497 91.62H28.9997C28.9997 97.1093 30.6107 101.525 33.8327 104.866C37.0547 108.088 41.4104 109.699 46.8997 109.699C52.389 109.699 56.7447 108.148 59.9667 105.045C63.1887 101.823 64.7997 97.4673 64.7997 91.978V25.39H35.2647V0.329997H91.6497V91.978C91.6497 104.627 87.652 114.651 79.6567 122.05C71.6614 129.329 60.7424 132.969 46.8997 132.969ZM164.97 132.79C156.258 132.79 148.681 131.179 142.237 127.957C135.793 124.616 130.781 120.021 127.201 114.174C123.74 108.207 122.01 101.286 122.01 93.41V70.14C122.01 62.264 123.74 55.4023 127.201 49.555C130.781 43.5883 135.793 38.994 142.237 35.772C148.681 32.4307 156.258 30.76 164.97 30.76C173.8 30.76 181.378 32.4307 187.703 35.772C194.147 38.994 199.099 43.5883 202.56 49.555C206.14 55.4023 207.93 62.264 207.93 70.14V93.41C207.93 101.286 206.14 108.207 202.56 114.174C199.099 120.021 194.147 124.616 187.703 127.957C181.378 131.179 173.8 132.79 164.97 132.79ZM164.97 109.52C170.22 109.52 174.218 108.148 176.963 105.403C179.707 102.539 181.08 98.5413 181.08 93.41V70.14C181.08 64.8893 179.707 60.8917 176.963 58.147C174.218 55.4023 170.22 54.03 164.97 54.03C159.838 54.03 155.841 55.4023 152.977 58.147C150.232 60.8917 148.86 64.8893 148.86 70.14V93.41C148.86 98.5413 150.232 102.539 152.977 105.403C155.841 108.148 159.838 109.52 164.97 109.52ZM277.849 132.79C269.138 132.79 261.5 131.179 254.937 127.957C248.493 124.616 243.481 120.021 239.901 114.174C236.44 108.207 234.71 101.286 234.71 93.41V70.14C234.71 62.264 236.44 55.4023 239.901 49.555C243.481 43.5883 248.493 38.994 254.937 35.772C261.5 32.4307 269.138 30.76 277.849 30.76C286.56 30.76 294.078 32.4307 300.403 35.772C306.847 38.994 311.799 43.5883 315.26 49.555C318.84 55.4023 320.63 62.264 320.63 70.14V88.04H260.307V93.41C260.307 99.6153 261.799 104.329 264.782 107.551C267.765 110.654 272.24 112.205 278.207 112.205C282.384 112.205 285.725 111.489 288.231 110.057C290.856 108.625 292.587 106.656 293.422 104.15H319.735C317.587 112.742 312.694 119.663 305.057 124.914C297.539 130.165 288.47 132.79 277.849 132.79ZM295.033 74.257V69.782C295.033 63.696 293.601 59.042 290.737 55.82C287.992 52.598 283.696 50.987 277.849 50.987C272.002 50.987 267.586 52.6577 264.603 55.999C261.739 59.3403 260.307 64.054 260.307 70.14V72.825L296.823 72.467L295.033 74.257ZM406.48 131C399.559 131 393.473 129.568 388.222 126.704C382.971 123.721 378.854 119.604 375.871 114.353C373.007 109.102 371.575 103.016 371.575 96.095V24.495H341.145V0.329997H398.425V96.095C398.425 99.317 399.38 101.942 401.289 103.971C403.318 105.88 405.943 106.835 409.165 106.835H437.805V131H406.48ZM12.5317 315L0.359702 184.33H22.3767L28.9997 271.682C29.119 273.353 29.2384 275.739 29.3577 278.842C29.477 281.825 29.5964 284.988 29.7157 288.329C29.9544 291.551 30.0737 294.475 30.0737 297.1C30.3124 294.475 30.551 291.551 30.7897 288.329C31.1477 284.988 31.5057 281.825 31.8637 278.842C32.2217 275.739 32.4604 273.353 32.5797 271.682L42.2457 184.33H62.6517L71.9597 271.682C72.1984 273.353 72.437 275.739 72.6757 278.842C73.0337 281.825 73.3917 284.988 73.7497 288.329C74.227 291.551 74.585 294.475 74.8237 297.1C74.943 294.475 75.0624 291.551 75.1817 288.329C75.301 284.988 75.4204 281.825 75.5397 278.842C75.659 275.739 75.7784 273.353 75.8977 271.682L81.9837 184.33H104.18L91.1127 315H63.1887L54.4177 228.185C54.179 226.156 53.9404 223.531 53.7017 220.309C53.463 216.968 53.2244 213.507 52.9857 209.927C52.747 206.347 52.5084 203.185 52.2697 200.44C52.1504 203.185 51.9714 206.347 51.7327 209.927C51.494 213.507 51.2554 216.968 51.0167 220.309C50.778 223.531 50.5394 226.156 50.3007 228.185L40.6347 315H12.5317ZM164.97 316.79C156.258 316.79 148.681 315.179 142.237 311.957C135.793 308.616 130.781 304.021 127.201 298.174C123.74 292.207 122.01 285.286 122.01 277.41V254.14C122.01 246.264 123.74 239.402 127.201 233.555C130.781 227.588 135.793 222.994 142.237 219.772C148.681 216.431 156.258 214.76 164.97 214.76C173.8 214.76 181.378 216.431 187.703 219.772C194.147 222.994 199.099 227.588 202.56 233.555C206.14 239.402 207.93 246.264 207.93 254.14V277.41C207.93 285.286 206.14 292.207 202.56 298.174C199.099 304.021 194.147 308.616 187.703 311.957C181.378 315.179 173.8 316.79 164.97 316.79ZM164.97 293.52C170.22 293.52 174.218 292.148 176.963 289.403C179.707 286.539 181.08 282.541 181.08 277.41V254.14C181.08 248.889 179.707 244.892 176.963 242.147C174.218 239.402 170.22 238.03 164.97 238.03C159.838 238.03 155.841 239.402 152.977 242.147C150.232 244.892 148.86 248.889 148.86 254.14V277.41C148.86 282.541 150.232 286.539 152.977 289.403C155.841 292.148 159.838 293.52 164.97 293.52ZM293.78 315C286.859 315 280.773 313.568 275.522 310.704C270.271 307.721 266.154 303.604 263.171 298.353C260.307 293.102 258.875 287.016 258.875 280.095V208.495H228.445V184.33H285.725V280.095C285.725 283.317 286.68 285.942 288.589 287.971C290.618 289.88 293.243 290.835 296.465 290.835H325.105V315H293.78ZM371.575 315V252.35H345.441V228.185H371.575V214.76C371.575 205.571 374.678 198.232 380.883 192.743C387.208 187.134 395.442 184.33 405.585 184.33H434.404V207.6H406.48C404.093 207.6 402.124 208.376 400.573 209.927C399.141 211.359 398.425 213.268 398.425 215.655V228.185H434.404V252.35H398.425V315H371.575Z" fill="url(#paint0_linear_2_3)" fill-opacity="0.26"/>
<path d="M14.1427 121.871L13.4577 122.6L13.4633 122.605L13.4689 122.61L14.1427 121.871ZM2.1497 91.62V90.62H1.1497V91.62H2.1497ZM28.9997 91.62H29.9997V90.62H28.9997V91.62ZM33.8327 104.866L33.1129 105.56L33.1192 105.567L33.1256 105.573L33.8327 104.866ZM59.9667 105.045L60.6603 105.765L60.6671 105.759L60.6738 105.752L59.9667 105.045ZM64.7997 25.39H65.7997V24.39H64.7997V25.39ZM35.2647 25.39H34.2647V26.39H35.2647V25.39ZM35.2647 0.329996V-0.670004H34.2647V0.329996H35.2647ZM91.6497 0.329996H92.6497V-0.670004H91.6497V0.329996ZM79.6567 122.05L80.3299 122.789L80.3359 122.784L79.6567 122.05ZM46.8997 131.969C33.3608 131.969 22.704 128.324 14.8165 121.132L13.4689 122.61C21.8107 130.216 32.9919 133.969 46.8997 133.969V131.969ZM14.8277 121.142C7.06466 113.843 3.1497 104.04 3.1497 91.62H1.1497C1.1497 104.499 5.23008 114.863 13.4577 122.6L14.8277 121.142ZM2.1497 92.62H28.9997V90.62H2.1497V92.62ZM27.9997 91.62C27.9997 97.3177 29.6789 101.999 33.1129 105.56L34.5525 104.172C31.5425 101.05 29.9997 96.901 29.9997 91.62H27.9997ZM33.1256 105.573C36.5725 109.02 41.2032 110.699 46.8997 110.699V108.699C41.6175 108.699 37.5369 107.156 34.5398 104.159L33.1256 105.573ZM46.8997 110.699C52.5856 110.699 57.2116 109.086 60.6603 105.765L59.2731 104.325C56.2778 107.209 52.1925 108.699 46.8997 108.699V110.699ZM60.6738 105.752C64.1207 102.305 65.7997 97.6745 65.7997 91.978H63.7997C63.7997 97.2602 62.2567 101.341 59.2596 104.338L60.6738 105.752ZM65.7997 91.978V25.39H63.7997V91.978H65.7997ZM64.7997 24.39H35.2647V26.39H64.7997V24.39ZM36.2647 25.39V0.329996H34.2647V25.39H36.2647ZM35.2647 1.33H91.6497V-0.670004H35.2647V1.33ZM90.6497 0.329996V91.978H92.6497V0.329996H90.6497ZM90.6497 91.978C90.6497 104.398 86.7348 114.138 78.9775 121.316L80.3359 122.784C88.5693 115.165 92.6497 104.857 92.6497 91.978H90.6497ZM78.9835 121.311C71.2194 128.379 60.5654 131.969 46.8997 131.969V133.969C60.9193 133.969 72.1033 130.279 80.3299 122.789L78.9835 121.311ZM142.237 127.957L141.776 128.845L141.783 128.848L141.79 128.851L142.237 127.957ZM127.201 114.174L126.336 114.676L126.342 114.686L126.348 114.696L127.201 114.174ZM127.201 49.555L126.343 49.0405L126.34 49.0457L127.201 49.555ZM142.237 35.772L142.684 36.6664L142.691 36.6631L142.697 36.6598L142.237 35.772ZM187.703 35.772L187.236 36.6562L187.246 36.6614L187.256 36.6664L187.703 35.772ZM202.56 49.555L201.695 50.0567L201.701 50.067L201.707 50.0771L202.56 49.555ZM202.56 114.174L201.702 113.66L201.699 113.665L202.56 114.174ZM187.703 127.957L188.157 128.848L188.163 128.845L187.703 127.957ZM176.963 105.403L177.67 106.11L177.677 106.103L177.685 106.095L176.963 105.403ZM176.963 58.147L176.256 58.8541L176.963 58.147ZM152.977 58.147L152.285 57.425L152.277 57.4324L152.27 57.4399L152.977 58.147ZM152.977 105.403L152.255 106.095L152.27 106.11L152.285 106.125L152.977 105.403ZM164.97 131.79C156.382 131.79 148.963 130.202 142.684 127.063L141.79 128.851C148.399 132.156 156.135 133.79 164.97 133.79V131.79ZM142.697 127.069C136.405 123.807 131.533 119.335 128.054 113.652L126.348 114.696C130.029 120.708 135.181 125.425 141.776 128.845L142.697 127.069ZM128.066 113.672C124.705 107.879 123.01 101.135 123.01 93.41H121.01C121.01 101.437 122.775 108.536 126.336 114.676L128.066 113.672ZM123.01 93.41V70.14H121.01V93.41H123.01ZM123.01 70.14C123.01 62.4143 124.706 55.7343 128.061 50.0643L126.34 49.0457C122.775 55.0703 121.01 62.1137 121.01 70.14H123.01ZM128.058 50.0695C131.537 44.2719 136.404 39.8065 142.684 36.6664L141.79 34.8776C135.182 38.1815 130.025 42.9048 126.343 49.0405L128.058 50.0695ZM142.697 36.6598C148.973 33.4055 156.387 31.76 164.97 31.76V29.76C156.13 29.76 148.388 31.4558 141.776 34.8842L142.697 36.6598ZM164.97 31.76C173.675 31.76 181.085 33.4067 187.236 36.6562L188.17 34.8878C181.671 31.4546 173.926 29.76 164.97 29.76V31.76ZM187.256 36.6664C193.533 39.8052 198.337 44.2667 201.695 50.0567L203.425 49.0533C199.862 42.91 194.76 38.1828 188.15 34.8776L187.256 36.6664ZM201.707 50.0771C205.177 55.7451 206.93 62.4203 206.93 70.14H208.93C208.93 62.1077 207.102 55.0596 203.413 49.0328L201.707 50.0771ZM206.93 70.14V93.41H208.93V70.14H206.93ZM206.93 93.41C206.93 101.129 205.177 107.868 201.702 113.66L203.417 114.688C207.102 108.547 208.93 101.443 208.93 93.41H206.93ZM201.699 113.665C198.34 119.34 193.532 123.808 187.242 127.069L188.163 128.845C194.761 125.423 199.858 120.703 203.42 114.683L201.699 113.665ZM187.249 127.066C181.095 130.201 173.68 131.79 164.97 131.79V133.79C173.921 133.79 181.661 132.157 188.157 128.848L187.249 127.066ZM164.97 110.52C170.39 110.52 174.679 109.101 177.67 106.11L176.256 104.696C173.757 107.195 170.051 108.52 164.97 108.52V110.52ZM177.685 106.095C180.656 102.995 182.08 98.7207 182.08 93.41H180.08C180.08 98.362 178.759 102.083 176.241 104.711L177.685 106.095ZM182.08 93.41V70.14H180.08V93.41H182.08ZM182.08 70.14C182.08 64.7203 180.661 60.4306 177.67 57.4399L176.256 58.8541C178.754 61.3527 180.08 65.0584 180.08 70.14H182.08ZM177.67 57.4399C174.679 54.4492 170.39 53.03 164.97 53.03V55.03C170.051 55.03 173.757 56.3555 176.256 58.8541L177.67 57.4399ZM164.97 53.03C159.659 53.03 155.385 54.4541 152.285 57.425L153.669 58.869C156.297 56.3505 160.018 55.03 164.97 55.03V53.03ZM152.27 57.4399C149.279 60.4306 147.86 64.7203 147.86 70.14H149.86C149.86 65.0584 151.185 61.3527 153.684 58.8541L152.27 57.4399ZM147.86 70.14V93.41H149.86V70.14H147.86ZM147.86 93.41C147.86 98.7207 149.284 102.995 152.255 106.095L153.699 104.711C151.18 102.083 149.86 98.362 149.86 93.41H147.86ZM152.285 106.125C155.385 109.096 159.659 110.52 164.97 110.52V108.52C160.018 108.52 156.297 107.199 153.669 104.681L152.285 106.125ZM254.937 127.957L254.477 128.845L254.486 128.85L254.496 128.855L254.937 127.957ZM239.901 114.174L239.036 114.676L239.042 114.686L239.048 114.696L239.901 114.174ZM239.901 49.555L239.043 49.0405L239.04 49.0457L239.901 49.555ZM254.937 35.772L255.384 36.6665L255.391 36.6632L254.937 35.772ZM300.403 35.772L299.936 36.6562L299.946 36.6614L299.956 36.6664L300.403 35.772ZM315.26 49.555L314.395 50.0567L314.401 50.067L314.407 50.0771L315.26 49.555ZM320.63 88.04V89.04H321.63V88.04H320.63ZM260.307 88.04V87.04H259.307V88.04H260.307ZM264.782 107.551L264.048 108.23L264.055 108.237L264.061 108.244L264.782 107.551ZM288.231 110.057L287.752 109.179L287.743 109.184L287.735 109.189L288.231 110.057ZM293.422 104.15V103.15H292.701L292.473 103.834L293.422 104.15ZM319.735 104.15L320.705 104.393L321.016 103.15H319.735V104.15ZM305.057 124.914L304.49 124.09L304.484 124.094L305.057 124.914ZM295.033 74.257H294.033V76.6712L295.74 74.9641L295.033 74.257ZM290.737 55.82L289.976 56.4685L289.982 56.4765L289.989 56.4844L290.737 55.82ZM264.603 55.999L263.857 55.333L263.85 55.3405L263.844 55.3482L264.603 55.999ZM260.307 72.825H259.307V73.8348L260.317 73.825L260.307 72.825ZM296.823 72.467L297.53 73.1741L299.261 71.443L296.813 71.467L296.823 72.467ZM277.849 131.79C269.261 131.79 261.78 130.202 255.378 127.059L254.496 128.855C261.221 132.156 269.014 133.79 277.849 133.79V131.79ZM255.397 127.069C249.105 123.807 244.233 119.335 240.754 113.652L239.048 114.696C242.729 120.708 247.881 125.425 254.477 128.845L255.397 127.069ZM240.766 113.672C237.406 107.879 235.71 101.135 235.71 93.41H233.71C233.71 101.437 235.475 108.536 239.036 114.676L240.766 113.672ZM235.71 93.41V70.14H233.71V93.41H235.71ZM235.71 70.14C235.71 62.4143 237.406 55.7343 240.761 50.0643L239.04 49.0457C235.475 55.0703 233.71 62.1137 233.71 70.14H235.71ZM240.758 50.0695C244.237 44.2719 249.104 39.8065 255.384 36.6664L254.49 34.8776C247.882 38.1815 242.725 42.9048 239.043 49.0405L240.758 50.0695ZM255.391 36.6632C261.79 33.4053 269.267 31.76 277.849 31.76V29.76C269.009 29.76 261.211 31.456 254.483 34.8808L255.391 36.6632ZM277.849 31.76C286.432 31.76 293.783 33.4058 299.936 36.6562L300.87 34.8878C294.373 31.4556 286.688 29.76 277.849 29.76V31.76ZM299.956 36.6664C306.233 39.8052 311.037 44.2667 314.395 50.0567L316.125 49.0533C312.562 42.91 307.461 38.1828 300.85 34.8776L299.956 36.6664ZM314.407 50.0771C317.877 55.7451 319.63 62.4203 319.63 70.14H321.63C321.63 62.1077 319.803 55.0596 316.113 49.0328L314.407 50.0771ZM319.63 70.14V88.04H321.63V70.14H319.63ZM320.63 87.04H260.307V89.04H320.63V87.04ZM259.307 88.04V93.41H261.307V88.04H259.307ZM259.307 93.41C259.307 99.7632 260.834 104.759 264.048 108.23L265.516 106.872C262.763 103.899 261.307 99.4675 261.307 93.41H259.307ZM264.061 108.244C267.296 111.609 272.076 113.205 278.207 113.205V111.205C272.405 111.205 268.234 109.698 265.503 106.858L264.061 108.244ZM278.207 113.205C282.485 113.205 286.017 112.474 288.727 110.925L287.735 109.189C285.433 110.504 282.282 111.205 278.207 111.205V113.205ZM288.71 110.935C291.525 109.399 293.445 107.244 294.371 104.466L292.473 103.834C291.729 106.068 290.187 107.851 287.752 109.179L288.71 110.935ZM293.422 105.15H319.735V103.15H293.422V105.15ZM318.765 103.907C316.679 112.251 311.937 118.97 304.49 124.09L305.623 125.738C313.451 120.356 318.495 113.233 320.705 104.393L318.765 103.907ZM304.484 124.094C297.16 129.21 288.298 131.79 277.849 131.79V133.79C288.641 133.79 297.918 131.12 305.629 125.734L304.484 124.094ZM296.033 74.257V69.782H294.033V74.257H296.033ZM296.033 69.782C296.033 63.5514 294.567 58.6239 291.484 55.1556L289.989 56.4844C292.635 59.4601 294.033 63.8406 294.033 69.782H296.033ZM291.498 55.1715C288.499 51.6506 283.872 49.987 277.849 49.987V51.987C283.52 51.987 287.486 53.5454 289.976 56.4685L291.498 55.1715ZM277.849 49.987C271.809 49.987 267.084 51.7189 263.857 55.333L265.349 56.665C268.089 53.5964 272.194 51.987 277.849 51.987V49.987ZM263.844 55.3482C260.774 58.9297 259.307 63.9064 259.307 70.14H261.307C261.307 64.2016 262.704 59.751 265.362 56.6498L263.844 55.3482ZM259.307 70.14V72.825H261.307V70.14H259.307ZM260.317 73.825L296.833 73.4669L296.813 71.467L260.297 71.825L260.317 73.825ZM296.116 71.7599L294.326 73.5499L295.74 74.9641L297.53 73.1741L296.116 71.7599ZM388.222 126.704L387.728 127.573L387.735 127.578L387.743 127.582L388.222 126.704ZM375.871 114.353L374.993 114.832L374.997 114.839L375.001 114.847L375.871 114.353ZM371.575 24.495H372.575V23.495H371.575V24.495ZM341.145 24.495H340.145V25.495H341.145V24.495ZM341.145 0.329996V-0.670004H340.145V0.329996H341.145ZM398.425 0.329996H399.425V-0.670004H398.425V0.329996ZM401.289 103.971L400.561 104.656L400.581 104.678L400.604 104.699L401.289 103.971ZM437.805 106.835H438.805V105.835H437.805V106.835ZM437.805 131V132H438.805V131H437.805ZM406.48 130C399.699 130 393.783 128.598 388.701 125.826L387.743 127.582C393.162 130.538 399.418 132 406.48 132V130ZM388.716 125.835C383.622 122.94 379.635 118.953 376.74 113.859L375.001 114.847C378.074 120.254 382.321 124.501 387.728 127.573L388.716 125.835ZM376.749 113.874C373.977 108.792 372.575 102.876 372.575 96.095H370.575C370.575 103.157 372.037 109.413 374.993 114.832L376.749 113.874ZM372.575 96.095V24.495H370.575V96.095H372.575ZM371.575 23.495H341.145V25.495H371.575V23.495ZM342.145 24.495V0.329996H340.145V24.495H342.145ZM341.145 1.33H398.425V-0.670004H341.145V1.33ZM397.425 0.329996V96.095H399.425V0.329996H397.425ZM397.425 96.095C397.425 99.529 398.45 102.413 400.561 104.656L402.017 103.286C400.31 101.471 399.425 99.105 399.425 96.095H397.425ZM400.604 104.699C402.847 106.81 405.731 107.835 409.165 107.835V105.835C406.155 105.835 403.788 104.95 401.974 103.243L400.604 104.699ZM409.165 107.835H437.805V105.835H409.165V107.835ZM436.805 106.835V131H438.805V106.835H436.805ZM437.805 130H406.48V132H437.805V130ZM12.5317 315L11.536 315.093L11.6205 316H12.5317V315ZM0.359702 184.33V183.33H-0.737778L-0.635987 184.423L0.359702 184.33ZM22.3767 184.33L23.3738 184.254L23.3038 183.33H22.3767V184.33ZM28.9997 271.682L29.9972 271.611L29.9968 271.606L28.9997 271.682ZM29.3577 278.842L28.3584 278.88L28.3585 278.882L29.3577 278.842ZM29.7157 288.329L28.7163 288.365L28.717 288.384L28.7184 288.403L29.7157 288.329ZM30.0737 297.1H29.0737L31.0696 297.191L30.0737 297.1ZM30.7897 288.329L29.7954 288.222L29.7936 288.239L29.7924 288.255L30.7897 288.329ZM31.8637 278.842L32.8566 278.961L32.8571 278.957L31.8637 278.842ZM32.5797 271.682L31.5858 271.572L31.5836 271.591L31.5822 271.611L32.5797 271.682ZM42.2457 184.33V183.33H41.3503L41.2518 184.22L42.2457 184.33ZM62.6517 184.33L63.6461 184.224L63.5508 183.33H62.6517V184.33ZM71.9597 271.682L70.9653 271.788L70.9672 271.806L70.9698 271.823L71.9597 271.682ZM72.6757 278.842L71.6787 278.919L71.6803 278.94L71.6828 278.961L72.6757 278.842ZM73.7497 288.329L72.7554 288.436L72.7575 288.456L72.7605 288.476L73.7497 288.329ZM74.8237 297.1L73.8278 297.191L75.8227 297.145L74.8237 297.1ZM75.1817 288.329L76.181 288.366L76.1811 288.365L75.1817 288.329ZM75.5397 278.842L76.5389 278.882L76.539 278.88L75.5397 278.842ZM75.8977 271.682L76.8952 271.753L76.8953 271.751L75.8977 271.682ZM81.9837 184.33V183.33H81.051L80.9861 184.26L81.9837 184.33ZM104.18 184.33L105.175 184.43L105.285 183.33H104.18V184.33ZM91.1127 315V316H92.0177L92.1077 315.1L91.1127 315ZM63.1887 315L62.1938 315.101L62.2846 316H63.1887V315ZM54.4177 228.185L55.4126 228.084L55.4118 228.076L55.4109 228.068L54.4177 228.185ZM53.7017 220.309L52.7042 220.38L52.7044 220.383L53.7017 220.309ZM52.9857 209.927L51.9879 209.994L52.9857 209.927ZM52.2697 200.44L53.2659 200.353L51.2706 200.397L52.2697 200.44ZM51.7327 209.927L52.7305 209.994L51.7327 209.927ZM51.0167 220.309L52.014 220.383L52.0142 220.38L51.0167 220.309ZM50.3007 228.185L49.3075 228.068L49.3068 228.074L50.3007 228.185ZM40.6347 315V316H41.5295L41.6286 315.111L40.6347 315ZM13.5274 314.907L1.35539 184.237L-0.635987 184.423L11.536 315.093L13.5274 314.907ZM0.359702 185.33H22.3767V183.33H0.359702V185.33ZM21.3796 184.406L28.0026 271.758L29.9968 271.606L23.3738 184.254L21.3796 184.406ZM28.0022 271.753C28.1204 273.407 28.2392 275.781 28.3584 278.88L30.357 278.804C30.2375 275.697 30.1177 273.298 29.9972 271.611L28.0022 271.753ZM28.3585 278.882C28.4778 281.864 28.5971 285.025 28.7163 288.365L30.7151 288.293C30.5957 284.951 30.4763 281.787 30.3569 278.802L28.3585 278.882ZM28.7184 288.403C28.9557 291.606 29.0737 294.504 29.0737 297.1H31.0737C31.0737 294.445 30.9531 291.496 30.713 288.255L28.7184 288.403ZM31.0696 297.191C31.3089 294.559 31.548 291.629 31.787 288.403L29.7924 288.255C29.5541 291.473 29.3159 294.391 29.0778 297.009L31.0696 297.191ZM31.784 288.436C32.1416 285.098 32.4991 281.94 32.8566 278.961L30.8708 278.723C30.5123 281.711 30.1538 284.877 29.7954 288.222L31.784 288.436ZM32.8571 278.957C33.2156 275.85 33.4563 273.446 33.5772 271.753L31.5822 271.611C31.4645 273.259 31.2278 275.629 30.8703 278.727L32.8571 278.957ZM33.5736 271.792L43.2396 184.44L41.2518 184.22L31.5858 271.572L33.5736 271.792ZM42.2457 185.33H62.6517V183.33H42.2457V185.33ZM61.6573 184.436L70.9653 271.788L72.9541 271.576L63.6461 184.224L61.6573 184.436ZM70.9698 271.823C71.2038 273.462 71.4405 275.823 71.6787 278.919L73.6728 278.765C73.4336 275.656 73.1929 273.244 72.9497 271.541L70.9698 271.823ZM71.6828 278.961C72.0403 281.94 72.3978 285.098 72.7554 288.436L74.744 288.222C74.3856 284.877 74.0271 281.711 73.6686 278.723L71.6828 278.961ZM72.7605 288.476C73.2357 291.683 73.5912 294.588 73.8278 297.191L75.8196 297.009C75.5789 294.362 75.2184 291.419 74.7389 288.182L72.7605 288.476ZM75.8227 297.145C75.9422 294.517 76.0616 291.59 76.181 288.366L74.1824 288.292C74.0631 291.512 73.9439 294.433 73.8247 297.055L75.8227 297.145ZM76.1811 288.365C76.3004 285.025 76.4196 281.864 76.5389 278.882L74.5405 278.802C74.4211 281.787 74.3017 284.951 74.1823 288.293L76.1811 288.365ZM76.539 278.88C76.6582 275.781 76.777 273.407 76.8952 271.753L74.9002 271.611C74.7797 273.298 74.6599 275.697 74.5404 278.804L76.539 278.88ZM76.8953 271.751L82.9813 184.4L80.9861 184.26L74.9001 271.612L76.8953 271.751ZM81.9837 185.33H104.18V183.33H81.9837V185.33ZM103.185 184.23L90.1177 314.9L92.1077 315.1L105.175 184.43L103.185 184.23ZM91.1127 314H63.1887V316H91.1127V314ZM64.1836 314.899L55.4126 228.084L53.4228 228.286L62.1938 315.101L64.1836 314.899ZM55.4109 228.068C55.1745 226.059 54.9371 223.45 54.699 220.235L52.7044 220.383C52.9436 223.612 53.1835 226.253 53.4246 228.302L55.4109 228.068ZM54.6992 220.238C54.4606 216.898 54.2221 213.439 53.9835 209.86L51.9879 209.994C52.2267 213.575 52.4655 217.037 52.7043 220.38L54.6992 220.238ZM53.9835 209.86C53.7445 206.276 53.5053 203.106 53.2659 200.353L51.2735 200.527C51.5114 203.263 51.7496 206.418 51.9879 209.994L53.9835 209.86ZM51.2706 200.397C51.1517 203.132 50.9732 206.286 50.7349 209.86L52.7305 209.994C52.9695 206.408 53.149 203.238 53.2688 200.483L51.2706 200.397ZM50.7349 209.86C50.4964 213.439 50.2578 216.898 50.0192 220.238L52.0142 220.38C52.2529 217.037 52.4917 213.575 52.7305 209.994L50.7349 209.86ZM50.0194 220.235C49.7813 223.45 49.5439 226.059 49.3076 228.068L51.2939 228.302C51.5349 226.253 51.7748 223.612 52.014 220.383L50.0194 220.235ZM49.3068 228.074L39.6408 314.889L41.6286 315.111L51.2946 228.296L49.3068 228.074ZM40.6347 314H12.5317V316H40.6347V314ZM142.237 311.957L141.776 312.845L141.783 312.848L141.79 312.851L142.237 311.957ZM127.201 298.174L126.336 298.676L126.342 298.686L126.348 298.696L127.201 298.174ZM127.201 233.555L126.343 233.04L126.34 233.046L127.201 233.555ZM142.237 219.772L142.684 220.666L142.691 220.663L142.697 220.66L142.237 219.772ZM187.703 219.772L187.236 220.656L187.246 220.661L187.256 220.666L187.703 219.772ZM202.56 233.555L201.695 234.057L201.701 234.067L201.707 234.077L202.56 233.555ZM202.56 298.174L201.702 297.659L201.699 297.665L202.56 298.174ZM187.703 311.957L188.157 312.848L188.163 312.845L187.703 311.957ZM176.963 289.403L177.67 290.11L177.677 290.103L177.685 290.095L176.963 289.403ZM176.963 242.147L176.256 242.854L176.963 242.147ZM152.977 242.147L152.285 241.425L152.277 241.432L152.27 241.44L152.977 242.147ZM152.977 289.403L152.255 290.095L152.27 290.11L152.285 290.125L152.977 289.403ZM164.97 315.79C156.382 315.79 148.963 314.202 142.684 311.063L141.79 312.851C148.399 316.156 156.135 317.79 164.97 317.79V315.79ZM142.697 311.069C136.405 307.807 131.533 303.335 128.054 297.652L126.348 298.696C130.029 304.708 135.181 309.425 141.776 312.845L142.697 311.069ZM128.066 297.672C124.705 291.879 123.01 285.135 123.01 277.41H121.01C121.01 285.437 122.775 292.536 126.336 298.676L128.066 297.672ZM123.01 277.41V254.14H121.01V277.41H123.01ZM123.01 254.14C123.01 246.414 124.706 239.734 128.061 234.064L126.34 233.046C122.775 239.07 121.01 246.114 121.01 254.14H123.01ZM128.058 234.069C131.537 228.272 136.404 223.807 142.684 220.666L141.79 218.878C135.182 222.181 130.025 226.905 126.343 233.04L128.058 234.069ZM142.697 220.66C148.973 217.406 156.387 215.76 164.97 215.76V213.76C156.13 213.76 148.388 215.456 141.776 218.884L142.697 220.66ZM164.97 215.76C173.675 215.76 181.085 217.407 187.236 220.656L188.17 218.888C181.671 215.455 173.926 213.76 164.97 213.76V215.76ZM187.256 220.666C193.533 223.805 198.337 228.267 201.695 234.057L203.425 233.053C199.862 226.91 194.76 222.183 188.15 218.878L187.256 220.666ZM201.707 234.077C205.177 239.745 206.93 246.42 206.93 254.14H208.93C208.93 246.108 207.102 239.06 203.413 233.033L201.707 234.077ZM206.93 254.14V277.41H208.93V254.14H206.93ZM206.93 277.41C206.93 285.129 205.177 291.868 201.702 297.66L203.417 298.689C207.102 292.547 208.93 285.443 208.93 277.41H206.93ZM201.699 297.665C198.34 303.34 193.532 307.808 187.242 311.069L188.163 312.845C194.761 309.423 199.858 304.703 203.42 298.683L201.699 297.665ZM187.249 311.066C181.095 314.201 173.68 315.79 164.97 315.79V317.79C173.921 317.79 181.661 316.157 188.157 312.848L187.249 311.066ZM164.97 294.52C170.39 294.52 174.679 293.101 177.67 290.11L176.256 288.696C173.757 291.195 170.051 292.52 164.97 292.52V294.52ZM177.685 290.095C180.656 286.995 182.08 282.721 182.08 277.41H180.08C180.08 282.362 178.759 286.083 176.241 288.711L177.685 290.095ZM182.08 277.41V254.14H180.08V277.41H182.08ZM182.08 254.14C182.08 248.72 180.661 244.431 177.67 241.44L176.256 242.854C178.754 245.353 180.08 249.058 180.08 254.14H182.08ZM177.67 241.44C174.679 238.449 170.39 237.03 164.97 237.03V239.03C170.051 239.03 173.757 240.355 176.256 242.854L177.67 241.44ZM164.97 237.03C159.659 237.03 155.385 238.454 152.285 241.425L153.669 242.869C156.297 240.351 160.018 239.03 164.97 239.03V237.03ZM152.27 241.44C149.279 244.431 147.86 248.72 147.86 254.14H149.86C149.86 249.058 151.185 245.353 153.684 242.854L152.27 241.44ZM147.86 254.14V277.41H149.86V254.14H147.86ZM147.86 277.41C147.86 282.721 149.284 286.995 152.255 290.095L153.699 288.711C151.18 286.083 149.86 282.362 149.86 277.41H147.86ZM152.285 290.125C155.385 293.096 159.659 294.52 164.97 294.52V292.52C160.018 292.52 156.297 291.199 153.669 288.681L152.285 290.125ZM275.522 310.704L275.028 311.573L275.035 311.578L275.043 311.582L275.522 310.704ZM263.171 298.353L262.293 298.832L262.297 298.839L262.301 298.847L263.171 298.353ZM258.875 208.495H259.875V207.495H258.875V208.495ZM228.445 208.495H227.445V209.495H228.445V208.495ZM228.445 184.33V183.33H227.445V184.33H228.445ZM285.725 184.33H286.725V183.33H285.725V184.33ZM288.589 287.971L287.861 288.656L287.881 288.678L287.904 288.699L288.589 287.971ZM325.105 290.835H326.105V289.835H325.105V290.835ZM325.105 315V316H326.105V315H325.105ZM293.78 314C286.999 314 281.083 312.598 276.001 309.826L275.043 311.582C280.462 314.538 286.718 316 293.78 316V314ZM276.016 309.835C270.922 306.94 266.935 302.953 264.04 297.859L262.301 298.847C265.374 304.254 269.62 308.501 275.028 311.573L276.016 309.835ZM264.049 297.874C261.277 292.792 259.875 286.876 259.875 280.095H257.875C257.875 287.157 259.337 293.413 262.293 298.832L264.049 297.874ZM259.875 280.095V208.495H257.875V280.095H259.875ZM258.875 207.495H228.445V209.495H258.875V207.495ZM229.445 208.495V184.33H227.445V208.495H229.445ZM228.445 185.33H285.725V183.33H228.445V185.33ZM284.725 184.33V280.095H286.725V184.33H284.725ZM284.725 280.095C284.725 283.529 285.749 286.413 287.861 288.656L289.317 287.286C287.61 285.471 286.725 283.105 286.725 280.095H284.725ZM287.904 288.699C290.147 290.81 293.031 291.835 296.465 291.835V289.835C293.455 289.835 291.088 288.95 289.274 287.243L287.904 288.699ZM296.465 291.835H325.105V289.835H296.465V291.835ZM324.105 290.835V315H326.105V290.835H324.105ZM325.105 314H293.78V316H325.105V314ZM371.575 315H370.575V316H371.575V315ZM371.575 252.35H372.575V251.35H371.575V252.35ZM345.441 252.35H344.441V253.35H345.441V252.35ZM345.441 228.185V227.185H344.441V228.185H345.441ZM371.575 228.185V229.185H372.575V228.185H371.575ZM380.883 192.743L381.546 193.492L381.546 193.491L380.883 192.743ZM434.404 184.33H435.404V183.33H434.404V184.33ZM434.404 207.6V208.6H435.404V207.6H434.404ZM400.573 209.927L401.28 210.634L400.573 209.927ZM398.425 228.185H397.425V229.185H398.425V228.185ZM434.404 228.185H435.404V227.185H434.404V228.185ZM434.404 252.35V253.35H435.404V252.35H434.404ZM398.425 252.35V251.35H397.425V252.35H398.425ZM398.425 315V316H399.425V315H398.425ZM372.575 315V252.35H370.575V315H372.575ZM371.575 251.35H345.441V253.35H371.575V251.35ZM346.441 252.35V228.185H344.441V252.35H346.441ZM345.441 229.185H371.575V227.185H345.441V229.185ZM372.575 228.185V214.76H370.575V228.185H372.575ZM372.575 214.76C372.575 205.823 375.58 198.77 381.546 193.492L380.22 191.994C373.776 197.695 370.575 205.32 370.575 214.76H372.575ZM381.546 193.491C387.653 188.076 395.635 185.33 405.585 185.33V183.33C395.248 183.33 386.762 186.193 380.219 191.995L381.546 193.491ZM405.585 185.33H434.404V183.33H405.585V185.33ZM433.404 184.33V207.6H435.404V184.33H433.404ZM434.404 206.6H406.48V208.6H434.404V206.6ZM406.48 206.6C403.854 206.6 401.622 207.464 399.866 209.22L401.28 210.634C402.626 209.288 404.333 208.6 406.48 208.6V206.6ZM399.866 209.22C398.213 210.873 397.425 213.054 397.425 215.655H399.425C399.425 213.483 400.069 211.845 401.28 210.634L399.866 209.22ZM397.425 215.655V228.185H399.425V215.655H397.425ZM398.425 229.185H434.404V227.185H398.425V229.185ZM433.404 228.185V252.35H435.404V228.185H433.404ZM434.404 251.35H398.425V253.35H434.404V251.35ZM397.425 252.35V315H399.425V252.35H397.425ZM398.425 314H371.575V316H398.425V314Z" fill="url(#paint1_linear_2_3)" fill-opacity="0.49" mask="url(#path-1-outside-1_2_3)"/>
</g>
<defs>
<filter id="filter0_b_2_3" x="-4.64032" y="-4.67" width="447.445" height="326.46" filterUnits="userSpaceOnUse" color-interpolation-filters="sRGB">
<feFlood flood-opacity="0" result="BackgroundImageFix"/>
<feGaussianBlur in="BackgroundImageFix" stdDeviation="2.5"/>
<feComposite in2="SourceAlpha" operator="in" result="effect1_backgroundBlur_2_3"/>
<feBlend mode="normal" in="SourceGraphic" in2="effect1_backgroundBlur_2_3" result="shape"/>
</filter>
<linearGradient id="paint0_linear_2_3" x1="-2" y1="159" x2="444" y2="159" gradientUnits="userSpaceOnUse">
<stop stop-color="#E0E0E0"/>
<stop offset="1" stop-color="#E0E0E0" stop-opacity="0.61"/>
</linearGradient>
<linearGradient id="paint1_linear_2_3" x1="-2" y1="159" x2="444" y2="159" gradientUnits="userSpaceOnUse">
<stop stop-color="#C2C2C2" stop-opacity="0.27"/>
<stop offset="1" stop-color="white" stop-opacity="0.83"/>
</linearGradient>
</defs>
</svg>
